<?xml version="1.0" encoding="utf-8"?>
<!-- Generator: Adobe Illustrator 24.3.0, SVG Export Plug-In . SVG Version: 6.00 Build 0)  -->
<svg version="1.1" id="Layer_1" xmlns="http://www.w3.org/2000/svg" xmlns:xlink="http://www.w3.org/1999/xlink" x="0px" y="0px"
	 viewBox="0 0 132 60" style="enable-background:new 0 0 132 60;" xml:space="preserve">
<style type="text/css">
	.st0{fill:#C1C1C1;}
</style>
<path class="st0" d="M69.9,33.9c0,2.9-3.6,2.8-3.6,2.8h-3.6v-5.3h3.6C70,31.4,69.9,33.9,69.9,33.9z M62.7,23.3h2.8
	c2.9,0.2,2.8,2.3,2.8,2.3c0,2.7-3.2,2.7-3.2,2.7h-2.4L62.7,23.3L62.7,23.3z M69.3,29.4c0,0,2.5-1.1,2.5-3.9c0,0,0.4-4.6-5.7-5.2
	h-6.8v19.4H67c0,0,6.5,0,6.5-5.5C73.5,34.2,73.6,30.5,69.3,29.4z M51.8,16.5h28.4v27H51.8V16.5L51.8,16.5z M37.1,33.9
	c0,2.9-3.6,2.8-3.6,2.8h-3.6v-5.3h3.6C37.2,31.4,37.1,33.9,37.1,33.9z M29.9,23.3h2.8c2.9,0.2,2.8,2.3,2.8,2.3
	c0,2.7-3.2,2.7-3.2,2.7h-2.4L29.9,23.3L29.9,23.3z M36.5,29.4c0,0,2.5-1.1,2.5-3.9c0,0,0.4-4.6-5.7-5.2h-6.8v19.4h7.7
	c0,0,6.5,0,6.5-5.5C40.7,34.2,40.8,30.5,36.5,29.4L36.5,29.4z M19,16.5h28.4v27H19L19,16.5L19,16.5z M107.2,21.7v3.6
	c0,0-3.5-2.2-7.3-2.2c0,0-7.2-0.1-7.5,6.9c0,0-0.3,6.5,7.4,6.9c0,0,3.2,0.4,7.6-2.4v3.7c0,0-5.8,3.5-12.6,0.8c0,0-5.7-2.1-5.9-9
	c0,0-0.2-7.1,7.4-9.4c0,0,2-0.8,5.7-0.4C101.9,20.1,104.1,20.4,107.2,21.7z M84.6,43.5H113v-27H84.6V43.5z"/>
</svg>
