<?xml version="1.0" encoding="utf-8"?>
<!-- Generator: Adobe Illustrator 24.3.0, SVG Export Plug-In . SVG Version: 6.00 Build 0)  -->
<svg version="1.1" id="Layer_1" xmlns="http://www.w3.org/2000/svg" xmlns:xlink="http://www.w3.org/1999/xlink" x="0px" y="0px"
	 viewBox="0 0 132 60" style="enable-background:new 0 0 132 60;" xml:space="preserve">
<style type="text/css">
	.st0{fill:#C1C1C1;}
</style>
<path class="st0" d="M17.1,40.1V19.9h19.6v20.2H17.1z M18.5,23.1c0.9,4.1,1.7,8.2,2.5,12.3c0.2,0.5,0.1,1.1,0.5,1.5
	c0.9,0.1,1.7,0.1,2.6,0c0.5,0,0.6-0.5,0.7-0.9c0.6-2.9,1.2-5.8,1.8-8.8c0-0.3,0.1-0.5,0.3-0.8c0.7,3.1,1.3,6.3,2,9.5
	c0.1,0.3,0.1,0.7,0.4,1c0.9,0.1,1.9,0.1,2.8,0c0.3-0.2,0.4-0.6,0.4-1c0.9-4.3,1.7-8.6,2.6-12.9c-0.8,0-1.6,0-2.5,0
	c-0.7,3.7-1.2,7.5-1.9,11.2c-0.8-3.2-1.4-6.4-2.1-9.6c-0.2-0.5-0.1-1.3-0.7-1.6c-0.7,0-1.4,0-2.2,0c-0.4,0-0.5,0.5-0.6,0.9
	c-0.7,3.2-1.3,6.3-2,9.5c-0.1,0.3-0.2,0.6-0.3,0.9c-0.7-3.7-1.3-7.4-1.8-11.2C20.3,23.1,19.4,23.1,18.5,23.1z M41.6,22.9
	c3.2,0,6.3,0,9.5,0c0,0.8,0,1.7,0,2.5c-1.1,0-2.2,0-3.3,0c0,3,0,6.1,0,9.2c1.1,0,2.2,0,3.3,0c0,0.8,0,1.7,0,2.5c-3.2,0-6.3,0-9.5,0
	c0-0.8,0-1.7,0-2.5c1.1,0,2.2,0,3.3,0c0-3.1,0-6.1,0-9.2c-1.1,0-2.2,0-3.3,0C41.6,24.6,41.6,23.8,41.6,22.9L41.6,22.9z M56.1,40.1
	V19.9h19.6v20.2H56.1z M60.5,23.1v13.8h2.7v-5.4c1.5,0,2.9,0,4.4,0c0.5-0.1,1.2,0.3,1.2,0.9c0.1,1.5,0.2,3,0.3,4.5
	c0.9,0,1.7,0,2.6,0c-0.2-1.7,0.1-3.4-0.4-5.1C71,31,70,30.8,69.3,30.5c0.6-0.3,1.3-0.3,1.7-0.9c0.6-0.7,0.6-1.7,0.6-2.6
	c0-1.1,0-2.2-0.7-3.1c-0.5-0.7-1.5-0.8-2.4-0.8C65.9,23.1,63.2,23.1,60.5,23.1L60.5,23.1z M63.2,25.4c1.7,0,3.5-0.1,5.2,0
	c0.7,0.5,0.5,1.4,0.6,2.2c0,0.7,0,1.7-0.9,1.8c-1.6,0.1-3.2,0-4.9,0C63.2,29.4,63.2,25.4,63.2,25.4z M79.1,22.9c3.9,0,7.7,0,11.6,0
	c0,1.5,0,3.1,0,4.6h-2.5c0-0.7,0-1.4,0-2.1c-1.5,0-3,0-4.5,0c0,1.1,0,2.1,0,3.2h3.7V31h-3.7c0,1.2,0,2.4,0,3.6c1.6,0,3.1,0,4.7,0
	c0-0.8,0-1.6,0-2.4c0.9,0,1.7,0,2.6,0c0,1.6,0,3.3,0,4.9c-3.9,0-7.8,0-11.8,0c0-0.8,0-1.7,0-2.5c0.6,0,1.2,0,1.9,0
	c0-3.1,0-6.1,0-9.2c-0.6,0-1.2,0-1.9,0C79.1,24.6,79.1,23.8,79.1,22.9z M95.1,40.1V19.9h19.8v20.2L95.1,40.1L95.1,40.1z M99.5,23.1
	v13.8c2.3,0,4.6,0,6.8,0c1.4,0,3-0.3,3.9-1.6c1-1.6,0.8-3.5,1-5.3c-0.2-1.8,0-3.8-1-5.4c-0.8-1.2-2.3-1.5-3.6-1.5
	C104.2,23.1,101.9,23.1,99.5,23.1z M102.2,25.4c1.5,0,2.9,0,4.4,0c0.7,0,1.4,0.3,1.6,1c0.5,1.3,0.3,2.8,0.3,4.2
	c0,1.1,0.1,2.3-0.4,3.3c-0.3,0.7-1.1,0.8-1.8,0.8c-1.4,0-2.8,0-4.2,0V25.4z"/>
</svg>
