<?xml version="1.0" encoding="utf-8"?>
<!-- Generator: Adobe Illustrator 24.3.0, SVG Export Plug-In . SVG Version: 6.00 Build 0)  -->
<svg version="1.1" id="Layer_1" xmlns="http://www.w3.org/2000/svg" xmlns:xlink="http://www.w3.org/1999/xlink" x="0px" y="0px"
	 viewBox="0 0 132 60" style="enable-background:new 0 0 132 60;" xml:space="preserve">
<style type="text/css">
	.st0{fill:#C1C1C1;}
</style>
<path class="st0" d="M54.2,28.9l0-2.5c0-0.1,0-0.2,0-0.3h9.7c0,0.7,0,1.5,0,2.2c0,0.1-0.1,0.2-0.2,0.3c-1.7,2.1-3.3,4.3-5,6.4
	c-0.1,0.1-0.2,0.2-0.3,0.4h0.5c1.6,0,3.2,0,4.7,0c0.3,0,0.4,0.1,0.4,0.4c0,0.8,0,1.6,0,2.4h-9.8c0-0.8,0-1.6,0-2.4
	c0-0.1,0.1-0.2,0.2-0.3c1.6-2.1,3.2-4.1,4.8-6.2c0.1-0.2,0.2-0.3,0.4-0.5L54.2,28.9L54.2,28.9z M48.9,28.9h-5.4v-2.8h9.7
	c0,0.5,0,1,0,1.6c0,0.5-0.1,0.8-0.4,1.2c-1.6,2-3.2,4.1-4.8,6.1c-0.1,0.1-0.2,0.2-0.3,0.4h5.6v2.8h-9.8c0-0.8,0-1.5,0-2.3
	c0-0.1,0.1-0.3,0.2-0.4c1.6-2.1,3.3-4.2,4.9-6.3C48.7,29.1,48.8,29,48.9,28.9z M105.3,35.7h1.8c2.1,0,3.3-1.2,3.6-3.2
	c0.2-1.5-0.6-3-1.9-3.5c-1.1-0.5-2.3-0.2-3.4-0.3L105.3,35.7L105.3,35.7z M102.3,38.2V26.5c0-0.5,0-0.5,0.5-0.5
	c1.7,0,3.5-0.1,5.2,0.1c2.5,0.2,4.4,1.3,5.3,3.8c0.9,2.5,0.2,5.4-1.7,6.9c-1.1,0.9-2.4,1.4-3.8,1.4c-1.8,0.1-3.6,0-5.4,0
	C102.4,38.3,102.4,38.3,102.3,38.2z M65.9,38.2V21.5h11.6v1.6c0,0.4,0,0.7,0,1.1s-0.1,0.4-0.4,0.4c-2.3,0-4.6,0-6.8,0h-0.7v3.5h0.4
	c1.7,0,3.4,0,5.2,0c0.3,0,0.4,0.1,0.4,0.4c0,0.9,0,1.8,0,2.7h-6v7C69.5,38.2,65.9,38.2,65.9,38.2z M35.9,38.6
	c-0.4-0.1-0.8-0.1-1.1-0.2C32.4,37.8,31,36,31,33.6c0-2.3,0-4.7,0-7v-0.4h3.2v0.4c0,2.2,0,4.4,0,6.6c0,1,0.3,1.9,1.2,2.3
	c1,0.5,2.1,0.5,3-0.2c0.7-0.5,0.9-1.3,0.9-2.1c0-2.2,0-4.4,0-6.6v-0.5h3.1v7.4c0,2.8-1.7,4.7-4.5,5c-0.1,0-0.3,0.1-0.4,0.1
	C37.6,38.6,35.9,38.6,35.9,38.6z M92.5,31h5.9c0.1-1.5-1.3-2.6-3.1-2.6C93.8,28.4,92.4,29.7,92.5,31z M95.1,38.6
	c-0.5-0.1-1-0.2-1.6-0.3c-2.4-0.7-4.1-2.8-4.3-5.3c-0.2-2.4,0.5-4.4,2.4-5.9c2.9-2.3,8.6-1.8,9.7,3.6c0.1,0.4,0.1,0.8,0.2,1.2
	c0,0.4,0,0.8,0,1.3h-8.9c0.1,0.7,0.3,1.2,0.8,1.7c1,1,2.2,1.2,3.6,1c0.8-0.2,1.6-0.5,2.3-1.1l1.4,2.1c-0.4,0.3-0.7,0.5-1.1,0.7
	c-0.9,0.5-1.9,0.8-3,0.9c-0.1,0-0.2,0.1-0.4,0.1C96.2,38.6,95.1,38.6,95.1,38.6z M85.4,31c0.1-1.5-1.4-2.7-3.2-2.6
	c-1.5,0.1-2.8,1.3-2.7,2.6H85.4z M82.2,38.6c-0.4-0.1-0.8-0.1-1.3-0.2c-3.3-0.8-4.9-3.6-4.6-6.8c0.2-2.6,1.6-4.5,4.1-5.4
	c3.5-1.2,7.5,0.4,8.1,5.1c0.1,0.6,0.1,1.2,0.1,1.9h-9c0.2,1.2,0.8,2,1.8,2.4c1.6,0.7,3.2,0.4,4.6-0.6c0.1-0.1,0.2-0.1,0.2-0.2
	c0,0,0,0,0.1,0l1.4,2.1c-0.5,0.3-0.9,0.6-1.4,0.8c-0.9,0.4-1.8,0.7-2.8,0.8c-0.1,0-0.2,0-0.3,0.1C83.3,38.6,82.2,38.6,82.2,38.6z
	 M21.3,28.1c1,0,2,0,3,0c0.2,0,0.4,0,0.6,0c0.7-0.1,1.2-0.5,1.4-1.2c0.3-1.2-0.4-2.2-1.7-2.2c-0.6,0-1.1,0-1.7,0h-1.6
	c0,0.1,0,0.2,0,0.3C21.3,25.9,21.3,27,21.3,28.1z M21.3,35.1c0,0,0.1,0,0.1,0c1.1,0,2.2,0,3.4,0c1.2-0.1,1.8-0.8,1.9-1.8
	c0-1.1-0.6-1.8-1.7-2c-0.7-0.1-1.4,0-2.2-0.1c-0.5,0-1,0-1.5,0V35.1z M17.7,21.4c2.7,0,5.4,0,8.1,0c2.1,0,3.7,1.5,4.1,3.4
	c0.4,2.2-0.7,4.1-2.5,4.6c0,0-0.1,0.1-0.1,0.1c1.7,0.5,2.7,1.6,2.9,3.3c0.5,2.8-1,5-3.9,5.3c-0.6,0.1-1.3,0.1-1.9,0.1
	c-2.2,0-4.5,0-6.7,0V21.4z"/>
</svg>
