<?xml version="1.0" encoding="utf-8"?>
<!-- Generator: Adobe Illustrator 24.3.0, SVG Export Plug-In . SVG Version: 6.00 Build 0)  -->
<svg version="1.1" id="Layer_1" xmlns="http://www.w3.org/2000/svg" xmlns:xlink="http://www.w3.org/1999/xlink" x="0px" y="0px"
	 viewBox="0 0 132 60" style="enable-background:new 0 0 132 60;" xml:space="preserve">
<style type="text/css">
	.st0{fill:#C1C1C1;}
</style>
<path class="st0" d="M97.9,27.2l-2.1,3.6H91l4.3-6.4l-4.1-5.9h4.9l1.9,3.2l1.8-3.2h4.7l-4,5.8l4.4,6.4h-4.9
	C100.1,30.8,97.9,27.2,97.9,27.2z M77.7,35.6h-2.8V24.3h2.4c4.9,0,5.3,4.1,5.3,5.5C82.6,32,82,35.6,77.7,35.6L77.7,35.6z M79.4,18.5
	H68.2v22.9h9.9c7.7,0,11.2-4.5,11.2-11.5C89.4,24.1,86.8,18.5,79.4,18.5z M47.6,41.5h19v-6.1H54.9v-2.3l11.8,0V27H54.9v-2.3l11.8,0
	v-6.1h-19L47.6,41.5L47.6,41.5z M27,24.6h5.8v16.8h7.3V24.6H46v-6.1H27V24.6z"/>
</svg>
