<svg xmlns="http://www.w3.org/2000/svg" width="1000" height="488.539" viewBox="-488.083 -238.448 1000 488.539"><path fill="#E6E6F8" d="M-245.234-121.797c9.363-6.186 1.805 10.451 0 0zm-7.599.656c2.56 0 3.953-1.516 3.521-3.48-.839.407-7.763 3.48-3.521 3.48zm15.199-50.971c1.968-.941 3.137-2.131 5.533-2.375-3.524-3.317-8.361-2.665-12.844-2.624.041 4.343 2.991 6.104 7.311 4.999zm440.24 224c-1.639 2.053-.49 13.608 3.854 9.632 2.46-2.169-3.032-8.81-3.854-9.632zm179.507 148.001c1.025 3.439 3.813 7.579 7.048 8.436a2.718 2.718 0 000-1.965h2.414c.169-2.95.904-3.521.904-6.268-2.134.612-10.652-1.72-10.366-.203.122.489-.041-.17 0 0zm9.013-4.181c0 1.475 1.271 2.577 2.502 2.705 0-2.215-.945-2.705-2.502-2.705 0 .163.204 0 0 0zm-10.61-.7c-1.598.822-.571 2.053.571 2.461.081-.286.408-2.828-.571-2.461-.245.082.163-.081 0 0zm69.776 23.893c4.71 0 5.818-8.851 11.515-9.958-2.542-5.247 6.967-4.425.163-8.523-5.405-3.276-3.276 2.297-6.431 5.818-2.828 3.113-8.157 3.936-10.203 7.538-1.557 2.828-1.067 5.859 4.956 5.125.122 0-.204 0 0 0zm-3.645 1.387c-.495.414-.658.699-1.026 1.148h2.338c.164-.816-.081-2.005-1.312-1.148-.251.169.205-.163 0 0zm18.517-32.486c0 1.435.164 5.119.164 5.486 0-.367-2.333-.163-2.373 1.557 0 2.216 1.679-.204 2.046 1.189-.081-.163 2.379 5.247 3.772 4.833.571-.163 1.965-2.78 2.787-3.603 4.337-4.099 7.334-9.014-1.435-7.457-.047-2.419-1.026-6.104-2.664-2.501-1.802-1.102-2.047-4.793-4.14-6.967-3.893-3.888 1.843 5.983 1.843 7.463zm-28.842-51.667c2.21 3.358 4.14 6.099 8.851 6.635-.408-2.006-6.968-6.717-8.851-6.635zm-93.954-25.979c-3.69.693 1.883 1.475 3.195 1.312v-1.148c-.857-.082-4.302-.082-3.195-.164zm32.901 1.474c-4.344 5.405 1.475 18.523-8.151 15.899.041 0-8.85-5.655-9.013-6.11-1.68-3.603 1.76-5.608 2.821-8.437-4.874-.699-9.666-3.113-14.418-3.113.938.816.856 1.394 2.536 2.373-.898-.489-5.818 2.787-7.125 3.609-3.935 2.583 2.169 3.031-4.343 4.303-2.216.408-3.201-2.665-6.723-1.313-2.868 1.062-3.276 4.997-6.553 4.997.489 1.066.611 2.787 1.143 3.772h-2.536v-1.971c-3.854-.164-5.166 8.034-9.591 10.08-3.276 1.598-8.442 2.047-12.046 3.445-1.638.571-2.664 5.819-4.547 1.47-1.598 4.798-1.965 7.707.781 12.541-5.865-2.665.489 6.268 1.638 9.509 2.455 6.472 4.834 10.733-.087 14.914 3.364 0 5.329 3.766 9.632 2.984 2.46-.326 3.69-3.229 6.437-3.848 2.128-.571 4.419 1.557 6.268 1.067 1.964-.618 2.005-2.134 3.644-2.787 1.557-.577 3.276-2.379 5.043-3.113 1.184-.496 2.332 1.312 3.767.775 5.206-1.965 11.106-4.997 17.211-1.802 3.644 1.965 7.171 15.899 11.106 3.358 2.74.944-.169 2.827.245 5.247 3.439-2.047 2.128.822 1.883 3.936 5.696-1.067 3.113 3.93 7.334 7.288.49.413 5.655 2.052 6.676 2.052 2.828.082 1.971-2.746 3.772-2.828 1.802-.081 1.842 3.358 3.031 3.114 5.819-1.23 11.882-3.44 14.011-8.892 1.398-3.521 1.726-7.13 3.976-10.896 4.385-7.539 5.247-15.491 1.108-23.601-.863-1.89-2.088-2.501-3.44-3.977-.944-.944-.944-2.827-1.644-3.608-.164-.245-3.195-1.021-3.93-1.802-.904-.857-.904-2.991-1.89-4.099-1.388-1.307-4.833-2.292-5.899-3.604-2.618-3.194-3.358-9.631-5.323-12.698-.659-.985-2.461-1.726-3.364-3.2-1.102-1.802-.571-6.228-3.195-6.886a19.469 19.469 0 00-.245 1.852zm48.961-5.655c.863 1.189 1.726.822 2.746.408-.49-1.393-3.603-2.25-2.746-.408.128.164-.082-.122 0 0zm-14.295-9.835c0 1.229 2.868 2.786 3.645 2.664-.694-1.802-2.787-2.868-2.787-4.588-.367-.082-.775 0-1.103.081.164.904.245 1.068.245 1.843zm-16.756-1.72c.367 3.771 11.02 1.883 10.034-3.936-.571.082-10.034 5.329-10.034 3.936.035.495 0-.245 0 0zm-48.805 7.293c0 .618 4.18 1.23 2.215-2.746-1.72.204-2.501 1.189-2.215 2.746zm-14.995-1.72c.285 1.475 1.883 1.148 3.194.612-1.101-1.02-1.637-.244-3.194-.612zm24.586-5.818c-.904.577-1.72 1.965-1.72 3.194 0 2.379 5.485-5.695 1.72-3.194zm-4.018-4.67c2.624-1.189 6.022 1.148 8.605 2.332 2.128 1.025 4.262.414 5.818 3.078 2.047 3.521-.326 2.658.164 4.67.122.49-2.869.408-1.598 2.781.571 1.107 3.936-1.388 5.037-1.062 3.69.979 5.084 4.303 9.632 2.869 2.786-.863 2.664-4.84 7.253-3.195 1.801.653 2.209 2.868 3.854 3.767 3.031 1.807 1.551 1.229 5.73 2.215 6.314 1.476 4.222 1.884 1.067-2.46-.449-.653-3.521-.245-4.058-.781.291.291-1.72-5.037-1.271-3.685-.163-.49-3.97-3.276.944-2.746-.944-1.802-5.451-5.078-7.742-6.309-4.262-2.46-7.579-3.276-12.29-4.752-6.723-2.134-6.354-.821-11.684 0-3.317.612-6.921-.944-11.55.204.533 1.803 1.186 3.522 2.089 3.074.163-.082-.163.081 0 0zm-23.186-6.273c-2.542.577 2.291 1.189 3.195 1.026 0-1.721-1.808-1.271-3.195-1.026zm30.154-2.251c.163 1.313.408 1.639.326 3.113h2.868c-.448-1.393-1.229-.734-1.229-3.113h-1.965c.081.286.734-.081 0 0zm-12.209.204c-.74-.081-1.312.082-1.889.659 2.99 1.72 6.273 4.256 10.284 2.454-3.317-6.267-5.363-1.924-8.395-3.113zm-.74-1.021c3.976-3.975-6.839-1.311 0 0 .449-.454-.245 0 0 0zm-2.95 3.604c1.067.49 1.516 3.195 1.965-.245-1.47.245-1.639.408-1.965.245zm-5.161 3.358c0 1.066 6.104 2.052 7.865 2.052-.413-3.276-7.374-2.378-7.865-2.052zm-2.377.408c-.816-.163-1.557-.327-2.379-.49 1.393 3.359 3.031.904 2.379.49-.409-.163.204.169 0 0zm3.602-15.811c-2.087 2.868-3.563 3.276-3.398 7.375.285 5.859 1.72-1.189 5.159-.659.21-1.965-.775-3.603-2.495-3.521.408-1.149.734-2.053.734-3.195-.285.408 0 .326 0 0zm-27.367 15.566s2.991 3.772 2.665 3.364c-.123-.169.448 3.358.571 3.767 2.093-1.394 1.598-5.568 1.598-7.865h1.761c.203.944 3.363 7.987 4.553 7.457 2.251-.985-1.889-8.77-3.119-10.407 13.438 0-8.029-7.871-8.029 3.684zm16.879-12.372c-2.291.816-15.159-.903-14.581 4.507 4.256-2.005 5.404-1.557 9.911-2.501 1.353-.326 1.802 1.312 3.521.577.904-.367 4.303-3.894 1.149-2.583-.163.082.577-.244 0 0zm-3.032 31.303c0 2.542 9.836-2.291 10.897-3.358-3.849-1.883-10.238 2.21-10.897 3.358zm-1.23 2.46c-1.143.164-1.47.694-.857 1.476h1.72c.203-.7.162-1.802-.863-1.476-.327.164.244-.081 0 0zm-9.096-5.899c2.542 2.536 10.489.408 13.357-.863-2.372-.368-12.289-.368-13.357.863zm-1.06 1.882c-3.69 1.067 3.031 2.868 4.215 2.787-.49-.571-2.91-3.032-4.215-2.787-.414.082.163-.082 0 0zm-7.3-2.495c-2.128.163 5.247.652 6.723.652-.49.082-.571-.163-.327-.862-2.378 0-4.099-.245-6.396.21-.326.081.455 0 0 0zm-31.629-4.962c3.358 2.624 8.028 3.446 13.766 4.018 4.466.489 10.08 2.786 14.913 2.128-1.347-2.665-4.174-3.44-7.288-2.828.245-2.087 1.721-1.061 3.195-2.005-8.238-1.354-15.898-1.517-24.586-1.313zm-8.85-4.179c-.613 1.311-.164 1.97 0 0-.082.244 0 0 0 0zm20.732-19.829c-3.889 2.705-1.475 7.539.74 10.407 3.113 4.344 4.426 3.848 10.489 4.833 6.063 1.026 4.133 2.624 7.579-2.501.163-.245.775-4.256 1.435-5.404.903-1.476 4.262-2.134 5.241-4.344-3.849-2.501-2.787-3.113-3.645-8.688 2.909.163 2.047-1.801 4.956-2.786.251.699-7.049-5.084-6.39-5.166-2.292.169-4.018 4.14-5.819 5.737-4.016 3.609-10.977 10.658-14.586 7.912zm-30.813 8.605c.21 1.883 3.358 6.635 5.247 7.049-.326-2.624-5.247-6.886-5.247-7.049.082.408 0-.332 0 0zm-4.628-6.478c.781 1.394 2.134 1.808 2.746 3.276 0-1.801-.49-3.031-2.292-3.848-.536 1.436 0 .736-.454.572zm-2.169-3.765c0-.496-.904-1.727-.904-.408 0 1.224.741 1.714 1.802 1.883.325-.741.081-1.231-.898-1.475zm1.06-6.723c-1.638 0-2.576-1.639-4.139-1.394.699 3.358 6.109 6.723 7.911 9.055 2.787 3.527 5.16 8.687 8.109 12.541 2.053 2.623 6.886 9.625 9.591 9.713 6.104.163 2.665-5.737 7.457-7.218-.571-3.767-4.017-5.16-7.008-3.032-.366-4.256-16.266-18.971-21.921-19.665-.285 0 .577.082 0 0zm75.316-10.08c-3.201.373-5.947 2.501-4.268 6.028 2.542-6.151 6.232.856 10.331 2.658-1.435-3.072 1.143-3.767 1.143-3.848.081-.577 1.312-7.993-1.271-7.993-2.577.001-3.067 5.166-5.935 3.155-.497.128.163.21 0 0zm-8.688-13.479c-.081 1.025 3.276 9.34 5.737 8.932-1.236 2.664 3.113 4.466 2.046-.775-.495-2.298-5.288-7.784-7.783-8.157 0 .373.163.04 0 0zm4.256-.45c3.65 2.583 6.063 7.498 9.999 8.191 0-4.385-4.18-5.486-4.18-9.422-2.332.001-3.521 1.231-5.819 1.231.455.368.455 0 0 0zm-5.526 2.623c-2.175 4.181-7.743 8.355-8.892 11.801 4.833 0 8.892-6.967 8.892-11.801-.129.246 0 .491 0 0zm2.25-17.046c-4.344 2.338-3.235 11.106 1.68 12.622-.205-2.787 6.028-12.622-1.68-12.622zm2.787-18.398c0-1.391-5.737 3.361-4.874 8.689h1.72c-.001-3.608 3.154-5.328 3.154-8.689zm74.37-65.188c-2.915.534-4.798 2.866-8.564 3.195-4.221.329-6.151-.493-10.488-2.91-.21 1.271-1.93 11.227-3.69 7.623-.822 1.312-3.399 7.62.903 5.653v1.475c-2.624.411-3.854 8.687-6.682 11.967 0-.904.082-1.394 0-2.419-1.679 1.638-2.169 2.253-2.909 4.384-.653-.901-1.72.656-1.312-1.883-1.884 1.394-2.577 3.195-2.822 5.982-5.865-2.542-16.68 2.335-17.747 8.687 1.148.082 2.664 0 3.364 0 0 2.868-3.072 4.137 1.23 5.323 0-2.909 4.751-7.291 0-7.702.979-3.032 8.231-3.032 11.345-3.521-3.317 2.046-8.646.082-7.416 5.652 2.665-1.104 5.248-2.375 7.131-4.096 1.312 3.113 5.078.735 4.466-1.968 11.515-1.312 9.381-1.886 12.086-11.555 1.516-5.326 3.323-9.506-1.72-13.687 3.399-.653 9.095 2.583 8.891-1.105 2.419.411 13.934-5.9 13.934-9.095-.21 0 0 .204 0 0zm5.445-2.787c-1.224.166-1.883 1.023-2.95 1.641 1.726 1.062 2.257-.043 2.95-1.641-.245 0-.285.575 0 0zm14.261-15.569c-.326 1.149-1.066 2.294-1.802 3.358 2.373-.982 1.721-2.869 1.802-3.358zm34.83-15.325c-.332 0-.863-1.475-1.645-.86-.163.574-.163 1.108-.163 1.72.491.082 2.297.286 1.808-.86zm-3.977.411c-.571-1.638-.408-2.624-1.924-3.772 0 1.557.326 2.868.49 4.425.98.248 1.721.329 1.434-.653-.081-.163.082.286 0 0zm-7.661-15.817c1.144 0 1.884-1.271 1.965-2.087-2.542-.944-2.786.572-3.771 2.087a4.5 4.5 0 001.806 0zm67.358-20.24c2.46.411 5.899 1.475 8.319 1.105-2.087-4.055-6.6-.901-8.319-1.105.413.041-.245-.085 0 0zm-25.811-35.771c3.194.74 7.043-.653 10.406-.653-.903-1.353-3.526-3.198-5.777-3.072-.781-.001-7.049 3.153-4.629 3.725.163.04-.245-.041 0 0zm-90.964-22.208c2.828 1.108 12.291 4.547 12.291-.778-4.053-.204-10.238.37-11.883-2.458-.326.286-1.352 2.788-.408 3.236.082.041-.244-.204 0 0zm-17.537 9.303c3.521.533 6.723-.167 10.04.982-1.189-4.915-6.599-3.688-10.04-.982zm2.909-3.688c1.931 0-1.638-1.639-2.746-1.598 0 1.761 1.19 1.598 2.746 1.598zm-10.896-6.556c3.154 4.629 20.937 3.361 22.085-2.458-2.787-.574-6.354-2.256-6.354 2.376a6.111 6.111 0 00-1.761 0c3.031-6.434-3.645-2.787-5.9-2.828-4.508-.122-5.656-2.294-8.07 2.91zm-3.072-1.187c-.251-.537-.251-1.108 0-1.764-3.202-.41-1.598 2.992 0 1.764-.041-.166-.287.286 0 0zm-1.598 6.309c.938 2.376.857 3.81 3.808 3.44-.817-1.105-2.747-2.744-3.808-3.44zm-77.525-21.429c-.863-1.56-3.276-1.927-4.915-1.146.45.449 5.615 2.907 4.915 1.146-.122-.207.083.204 0 0zm-33.884 6.882c.944-.367 2.052 0 3.031 0-.367-3.687-1.924-.819-3.031 0zm12.622-5.244c.571 0 14.383-2.95 14.71-3.361 3.398-4.466-6.805-4.055-7.58-4.384.694-.694.979-.734 1.143-1.638-5.982-.983-8.932 9.383-8.273 9.383zm-9.265-14.462c-10.156 1.475-8.769 7.209.577 8.069 7.131.659 7.62.822 7.253-3.399-.454-5.737-.041-2.909-5.369-2.909.571-.944.536-.738.734-1.72-1.142-.041-2.168-.041-3.195-.041zm-8.768.612c4.018 2.131 9.713-3.481 12.046-4.956-5.282-2.583-12.535-2.828-16.716 2.746.204.49 3.649 1.721 4.67 2.21.163.123-.163-.081 0 0zm-1.225 1.271c-1.889 0-3.282-1.067-5.328-.738.285 5.942 8.034.738 5.328.738zm-5.899-9.465c-4.385 0-.985 1.804-1.313 2.335-.903 1.434 5.568-2.335 1.313-2.335zm-113.666 68.345c-2.577-.408-6.799-3.443-4.915 2.665 1.637-.042 4.587-.904 4.915-2.665-.199-.041-.082.163 0 0zm11.147-21.103c-2.583-.245-7.865 6.515-7.865 10.04 1.516-.289 2.536-1.271 3.398.574.537-.245.781-.615.618-1.107 3.277 1.638.979 3.565 2.781 4.343 2.379 1.026 6.845.656 9.428.656-.327-3.524-4.262-4.632-4.466-7.909-.373-4.058 3.072-6.431 5.526-8.891 5.819-5.818 11.311-8.973 19.835-11.104 2.495-.615 13.071-2.784 11.923-5.53-1.598-3.977-7.743.53-9.877 1.146-5.322 1.723-22.86 2.131-22.86 8.605-1.107-.125-2.134-.166-3.194 0 2.658 4.629-6.886 4.466-6.028 7.579.985-.204 1.271-.574 2.338-.452-.572 1.395.862 2.216-1.557 2.05-.327-.041.489.044 0 0zm43.843 1.312c2.332 0 3.604-1.434 4.221-1.764 1.224-.693-7.83 1.764-4.221 1.764zm-20.774-46.219c3.236 4.958 5.486.286 9.177-.408-3.398-1.927-6.022 1.475-9.177.408zm-7.13 0c0 1.72-1.189 1.23-2.087 2.664 2.576.819 5.241.86 8.15.368-2.378-3.113-2.133-5.326-6.063-3.032zm-1.026 5.247c-.816.245-1.475.449-2.332.449.408 2.009 1.72.86 3.358.574-.204-.778-.041-1.27-1.026-1.023-.245.082.245-.041 0 0zm-10.162-.863c1.313 1.189 1.516 2.991 3.609.286 0 3.279 4.262.207 4.792-.286.041-.408 0-.819-.163-1.189-2.583-.449-6.681.7-8.238 1.189zm-8.354.286c2.414-2.455 7.538-3.521 11.224-2.621-.898-5.245 4.751 1.845 5.532-3.032-1.271 0-2.379.207-3.649 0 .495-.738 1.435-2.417 1.767-2.787-2.012 0-3.317 1.271-4.385 1.601.735-.207-3.527.898-3.936 1.187-1.066.656-1.393 2.131-2.868 3.198-2.047 1.434-3.073.326-3.685 2.454zm-11.637-3.93c-4.344 0-5.37 1.516-9.51.694.251 3.154 5.574 1.026 8.034 1.026-5.084 3.685 3.48 4.588 5.982 1.312 4.052-5.37.245-3.032-4.506-3.032zm-83.466 4.997c.921 2.379 6.186-.86 7.253 1.883-1.394-.082-2.869.041-4.344 0 2.624 7.375 17.211.781 20.569-1.187-3.276-3.606-7.906-.615-10.815-1.475.571-1.064 1.271-.86 1.026-2.172-3.446 1.353-2.583.163-4.554 3.647-1.311-3.32-10.627-4.095-9.135-.696.082.245-.163-.367 0 0zm-5.859 11.022c0 .778-7.807.33-8.728 3.483 1.889-.411 7.807-1.761 8.547-.737-1.172.778-7.545 1.802-7.626 2.335-.163.941 5.533 3.729 6.739 5.367 3.79-2.866 7.399-8.398 7.399-12.293 1.084-.163 3.049-.204 4.156 0-.489 3.527.408.985 1.924 3.073 1.108 1.519-1.184 2.746-1.184 4.302 4.018-2.498 4.426.863 5.982.578 1.638-.248 4.466-1.971 6.145-2.338-1.761-2.335-3.562.327-3.562-3.072-1.727.245-13.299-6.638-13.626-7.743-.513.204-1.394.49-2.355 0 .368-.904.881-1.434 1.044-2.297-4.361-2.087-4.489.329-6.535.863.962-.289-1.557 2.498-1.843 2.58.653-.248-1.107-3.484-1.394-3.524.432.122-4.874 2.049-4.774 1.967.577-.9.839-1.845 1.288-2.661-2.601.571-13.416 3.154-4.77 4.384 0 1.061.204 3.889-.186 4.792-1.577-.781-1.37-2.172-3.341-2.624.781 1.557 3.894 6.681 3.894 2.049 1.843.163 1.965 2.909 4.53 2.008 1.003-.327 1.598-2.215 2.601-2.297.043.041 5.366-.408 5.675 1.805 0 .122-.082-.493 0 0zm360.441 94.321c7.3 0 8.524-3.116 13.567-2.049 2.787.534-.577 2.46 2.332 3.195 4.14.944 2.746-3.114 6.396-.368.286-1.924 1.517-.408 3.154-.574-.862-3.647-2.297-.411-.862-4.218.617-1.682 4.384-5.451 5.777-6.188 4.67-2.621 8.688-1.598 8.688 3.729 6.308-1.149 7.905-9.792 13.934-8.646-4.017 3.279-5.41 8.442-9.835 12.13-5.656 4.67-12.868 7.25-14.873 13.398-1.435 4.384-1.271 10.736-.455 14.832 1.148 5.614.577 6.474 4.758 4.303 4.425-2.294 4.833-12.457 11.8-10.655-1.889-3.521-.454-8.358 3.604-5.859-1.312-2.825-.163-5.571-.571-7.375-.245-.857-1.924-.245-2.624 0 .082-1.434 2.461-7.045 3.358-7.865 2.501-2.253 2.787-.944 5.818-1.638 1.639-.327.985 1.104 2.134 1.023 1.517-.123 1.924-2.58 3.195-2.621 1.557-.041 3.031.49 4.588.286 3.691-.408.694 2.212 3.521 2.787 0-6.927 16.518-11.229 21.146-12.582 4.256-1.146 4.67 3.772 3.195-2.621-1.271-5.652-4.222-3.402-7.871-5.818-2.087-1.557 8.646-1.187 8.605-1.146 3.113-1.271 4.099-2.95 2.624-6.146 2.215-.125 2.542 2.128 3.194 2.21.408.041 4.956.863 5.574 1.108 2.909 1.393 2.215 2.335 5.981 3.195 5.166 1.312 1.148.904 3.936-.164 2.291-.819.489-3.031 1.761-4.18 1.148-1.064 9.054 2.256 5.859-3.399-1.148-2.008-9.306-3.402-11.27-2.624 1.801 1.23 2.256 4.18-.775 2.008-1.026-.737.489-3.646-.904-4.795-.74-.612-2.128-.082-2.705-.653-1.102-.904-4.262-2.705-5.323-3.361-3.031-1.642-5.002-2.706-8.156-4.262-6.553-3.195-20.691-5.652-24.953-1.35 7.375 2.991-11.469 5.612-1.476-.863-2.99-2.294-5.573.819-8.559 1.23-3.731.531-10.168.942-13.403-.656-.082 1.064-.123 2.253 0 3.361-4.589-5.166-4.344-11.107-13.97-10.492-3.562.207-7.008 1.353-10.651.615-4.711-.942-5.614-3.358-9.713-3.81.862-1.064-.735-.656 1.393-1.764-6.145-3.481-13.275 5.288-10.61-1.883-3.073 0-6.187-1.72-9.428-1.761-6.104-.123-4.711.857-10.366 1.761 0 2.501 2.868 2.376 2.868 5.081a36.115 36.115 0 00-6.798-1.105c.531.775 1.965 1.883 1.394 3.154-2.746-.533-3.282-2.705-5.94-3.195.122 0-6.927-.084-7.294.041-3.813 1.021-3.154 4.752-6.104 4.752.082 0-5.492-4.792-5.9-5.819-.495-1.271 1.598-5.41 0-7.334-2.542-2.909-4.513.286-7.13-.408-5.818-1.516-7.62-5.452-7.62 2.539-4.466.041-7.049.452-11.106-1.189-1.435-.615-2.338-2.621-4.181-3.073-3.521-.86-9.83.819-13.643.819v-2.294c-1.312.452-3.521 1.764-4.752.615.327-.041 6.513-3.032 3.685-3.769-3.276-.901-5.078 4.218-9.34 3.442.653 3.848-5.818 3.481-9.218 3.481 3.686-.327 19.91-10.203 20.278-12.25 1.563-8.769-15.036-7.993-18.844-6.559.775-.897 1.306-1.104 1.306-2.495-2.168.204-4.256-.455-6.39-.455.373-.694 2.134-2.825 2.542-3.195-8.442-.653-8.769 2.297-14.016 4.958.74.901.577.615.74 1.598-5.737-1.35-6.186 2.58-11.065 3.116-1.761.164-4.915-1.927-7.579-1.641-.531.044-5.941 3.361-8.32 3.933-2.454.536-4.419.863-7.369 1.845-.904.37-6.063 2.172-6.6 3.032-2.414 3.565 4.466 1.189.204 4.262-4.67 3.443-13.357-.941-18.149 3.239 1.271 3.032 9.713 7.947 4.955 8.314-1.353.082-3.113-2.499-3.93-2.743-3.69-1.271-6.145-1.353-9.754-.615 1.313.656 3.032.49 3.032 2.46-10.815-.7 1.802 1.802 1.312 5.241-1.802-2.702-6.472-.897-8.605-3.603-.734-.903.163-5.533-.734-7.293-.245.449-.659.531-1.067.449 0 5.37-3.194 3.236-3.771 6.434 0 0 .903 8.932 1.107 9.262 3.072 5.078 2.256.53 6.104 2.005 4.67 1.845 4.425 4.303 4.425 7.416 0 1.067 3.69 1.679 4.262 1.764-6.063 3.973-4.833-11.145-13.071-4.425 0 0 .286 4.014-.367 5-1.107 1.842-2.379 2.58-3.936 3.44-4.425 2.542-4.378 1.475-9.999 1.108 1.236-1.802 5.819-1.516 8.116-3.484 2.134-1.886 3.603-4.055 3.603-7.086-3.357.286-4.501-13.031-4.215-16.762h1.883c.944-4.875-7.008-6.104-10.488-3.481-.449.367-6.022 9.258-6.104 9.71.898-2.662.938 6.311.163 4.673.735 1.557 2.169 1.187 3.195 3.317.653 1.394 3.767 1.353 3.195 3.48-.979 3.813-4.834-1.39-4.997-1.475-4.262-1.104-7.538-2.661-11.596-4.055-2.169-.697-9.836-4.711-11.107-4.507-5.322.86 10.162 7.005-.244 11.104 0-8.113-16.879 5.859-13.766-3.358-4.425 2.621-9.55 2.702-14.016 5.737-.816.531-10.488 9.462-9.83.449 7.376.286-1.229-4.67-5.41-4.67 1.843 1.802 3.113 11.06 1.312 12.208.408-.245-4.384-1.353-5.736-1.107-1.067.207-4.018 3.527-6.146 3.69.612.86 2.21 3.317 2.087 4.547-2.99-1.557-6.512-.082-9.054-3.236-5.982 3.236 3.031 3.644 3.031 5.53 0 1.475-4.507.819-4.915.574-4.466-2.131-2.215-1.557-4.262-4.877-1.679-2.909-5.282-6.556-7.952-10.078 2.42.449 27.95 10.57 24.918-1.312-.74-2.828-7.707-5.492-10.331-6.474-4.174-1.516-10.4-.411-12.249-1.516 2.128-4.466-6.431-3.035-8.437-4.877 3.276 0 1.598-1.516-.081-2.417-4.14-2.376-2.42.452-5.411.452.327-.659.775-2.215.857-2.868-.897-.204-3.113-.204-4.017 0 .087 1.475-.198 2.25 0 3.562-.735-1.801-1.388-1.475-2.781-2.787-.577 3.198-1.971 4.55-1.971.496.495-.207 1.557 0 2.052 0v-1.886c-1.189.163-9.101 4.384-6.232 1.268-6.145-.612-5.567 2.705-2.373 4.507-1.72-.694-4.099-.082-5.899-.694 0 1.679.244 2.128-.904 3.032 0-2.09-3.031-3.976-5.078-3.772.84 2.91-1.93 7.419-2.478 3.198-3.568 3.565-.245 1.023-1.476 4.836-2.973-1.23-2.297-.37-3.177-3.361-1.23.411-1.947 1.764-3.831 2.621.555.985.473.536.473 1.475-2.729 0-4.367 1.312-5.842 3.198 3.031-.982 7.521-3.769 10.739-2.172-4.303.945-10.658 8.276-11.456 13.521-1.411.163-3.604 1.557-4.813 2.746h2.358c-.391 2.868-7.008 5.696-9.078 5.285 0 1.189-.204.696.286 2.171-7.888 1.638-8.891 6.227-10.488 11.964 6.556-.204-2.335 3.935 3.667 4.425-.123 1.639-.921 1.886-.758 3.443 6.413 0 8.81.738 13.132-4.673 2.808.496 4.935 10.573 7.459 13.401.712.819-1.579 2.294.222 2.909 4.181 1.638 2.379-1.353 4.14-2.049 3.154-1.108 4.874-2.212 7.603-2.828.204-.612.204-.982 0-1.475-1.563.163-2.011.082-2.892-.612.881-1.434 4.652-6.148 4.938-6.926.921-2.419 4.507-4.466-.881-4.466 0-3.854-3.3-7.457.718-12.086 2.028-2.379 5.777-2.542 7.579-4.958 1.229-1.601 1.271-6.189 4.18-8.031 2.21-1.353 7.294.985 7.661 3.606.863 5.652-17.392 8.81-9.014 18.52 5.941 6.842 16.267-1.475 23.152 2.542-3.854 3.93-9.387 2.21-13.935 2.743-1.802.289-8.109 2.417-8.191 2.499.653.248 1.143.577 1.72.822-1.353 0-2.297.49-3.608.901 1.563 4.177 4.594-.697 5.696-.207 2.011.985 2.174 2.093 3.935 3.239-5.002 6.393-4.629-1.023-7.579 0-3.527 1.268-3.276 8.891-3.358 10.777-2.996 0-6.845-1.597-4.349 2.499-4.524-4.591-7.025.33-11.981.737-1.679.164-8.891-4.099-9.404.615-1.883-.166-3.728-.86-4.734-1.641.536-4.997 7.766 2.134 7.008-6.798-1.044.49-4.568 1.72-5.245 1.475.041-.863.574-2.338.88-3.116-.592.248-1.187.248-1.72 0 .676-4.795-.595-5.611-4.282-1.886-2.6 2.624-.717 5.492-.839 7.993-.286 6.553 1.638 2.95-3.44 5.941-2.647 1.475-7.171 3.032-10.063 3.032 3.731 4.711-3.521 4.262-6.268 6.349-.286.163-2.56 5.41-3.341 5.655-2.743.86-4.401-1.638-6.227-1.434 4.282 7.293-4.18 2.212-6.699 4.18-3.073 2.375.839 1.557 1.801 2.95 1.376 2.005 3.055 2.828 4.53 5.859 8.255 16.47-11.783 6.308-19.974 9.748 1.557 5.247-.758 11.433.594 16.555 1.166 4.591-.391 1.805 3.644 4.384 2.563 1.601 3.854.082 6.25 3.076.554-.659.472-.863-.286-.863 4.198-1.475 9.401-3.195 12.698-6.227 1.353-1.271 2.029.327 3.032-1.107.635-.86-1.227-2.335-1.125-2.417.493-.656.88-3.606 1.886-4.836 1.333-1.598 7.25-3.317 8.256-4.18 1.227-1.064-.88-3.195 1.353-4.466 1.845-1.146 5.204 1.353 7.25 1.026.798-.082 4.611-4.751 6.722-4.384 2.804.49 5.655 5.818 7.97 7.702 7.049 5.492 19.502 13.031 1.924 13.031 4.693 8.197 12.127-.327 14.139-5.245h-2.519c-.047-.493.035-.941.116-1.516 1.23.411 4.367 1.023 5.288 1.023-1.802-3.521-6.821-7.538-11.224-8.15.49-2.828-4.04-6.271-6.086-6.107.612-9.18 6.494-1.064 11.019 2.213 3.078 2.335 7.09 3.895 8.81 6.967 1.067 1.965 2.583 7.212 3.649 9.381-1.148-.367-1.475-.612-2.623-.449.903 2.58 2.256 3.726 3.936 1.72 1.761 9.055 7.783-.656 11.06-1.107-.53-.982-1.23-1.72-2.338-1.72.251.574.251 1.108 0 1.72-1.714 0-5.323-5.408-4.792-6.553 1.807.982 2.746 1.557 4.676.734a1.031 1.031 0 00-.985-.734c6.553-9.672 10.202 15.485 11.27 15.485 1.102 0 .857-3.276.857-3.685 2.582 2.209 4.588 1.802 6.594 2.046-2.087-.245 3.364-1.394 3.241-1.394 2.088-.082 3.032 2.583 6.391 1.723 0-.819-.082-1.642 0-2.539 6.39 1.268 6.885 3.521 4.547 10.325-.775 2.373-3.766 6.186-5.818 7.127-2.495 1.023-4.833-1.475-7.171-.289 3.649 1.723 6.145 12.745 10.325 8.442 6.15 6.475 7.701 15.328 11.719 22.126 2.623 4.262 7.911 7.62 10.08 12.535 2.991 6.641-.979 10.657 7.457 10.82 3.772 0 8.197-3.603 11.923-5.165 4.303-1.72 6.355-3.521 9.754-5.078 4.385-1.965 7.008-1.108 10.04-4.63 1.394-1.557 4.344-5.573 6.227-4.751 0-4.099.081-4.262 3.072-5.574-.367-1.971-3.649-4.18-5.119-5.41-2.623-2.216 0-4.588-3.771-.863-.408-1.801-.945-5.649-2.379-6.716-1.557 2.005-2.088 2.172-2.332 5.247-5.859-.495-14.873-.251-4.222-2.216-.163-.655-8.36-2.909-8.769-3.195-1.271-.863-5.159-5.166-5.492-7.13-1.102-6.719 2.134-4.466 6.104-1.72 4.921 3.358 6.6 4.915 12.378 6.801.938.33 3.317-.329 4.629 0 1.067.33 1.312 2.662 2.705 3.198 2.536 1.228 9.014 1.802 12.005 1.965 7.008.245 8.973-.408 14.628 2.786 2.991 1.721 3.276 3.93 7.865 4.711-8.028 0 1.148 4.222 3.031 4.834 3.032.985 1.394-4.099 4.67.414 1.557 2.168.332 4.914.74 7.334.816 4.629 2.542 8.396 4.263 12.78 1.102 2.949 3.194 12.622 6.104 14.342 2.991 1.639 6.063-1.394 7.743-4.833 1.148-2.379 1.148-5.043 1.434-7.702.163-1.399-.367-3.936.082-5.084 1.516-3.848 1.189-.081 4.058-2.868 5.41-5.247 11.841-13.153 16.879-15.98 1.93-1.021 10.488-2.828 10.616-2.746 1.639 1.026 5.405 9.591 5.405 11.433 4.996 0-.735 4.222 2.909 7.049 2.46 1.965 5.247-2.134 5.696-2.052 3.895 1.066 6.594 11.352 6.512 15.572-.035 2.21-3.48 4.589-1.965 8.442.863 2.291 4.385 4.384 5.696 7.375 1.516 3.521 4.629 16.144 11.434 12.99-2.338-4.059-2.338-11.107-4.636-13.935-3.398-4.14-7.416-3.895-8.313-9.748-.204-1.399-1.476-7.3.734-9.096 3.527-2.95.618-.781 4.099 1.103 3.032 1.638 2.705 1.557 5.451 4.915.612.862 2.828 1.398 3.154 1.889.985 1.638-.326 3.113 1.148 5.573 2.869-4.099 7.294-5.124 9.585-8.237 4.262-5.859 1.598-10.734-1.883-15.246-5.288-6.88-6.676-15.24 5.532-15.24.776 3.527-4.466 7.416-2.501 9.223 4.997 4.385 6.104-8.523 5.982-8.441 2.215-1.971 6.885-2.053 9.346-2.869 3.603-1.148 4.792-1.889 7.865-4.18 4.262-3.195 11.963-10.081 13.03-15.818.734-4.218-1.476-1.557-1.924-4.425-.251-1.557 1.265-1.228.775-4.014-.659-3.361-5.329-7.539-5.241-9.915.163-4.629 4.833-3.113 6.553-5.574 1.435-2.128 1.435-2.046-2.868-3.603-1.971-.659-1.435 2.21-3.936 2.21.699-5.408-6.431-1.639-3.276-6.72-.245.452 5.655-2.212 5.981-2.375 6.396-2.379 4.507-3.195 1.883 3.521 1.89-1.061 6.927-3.685 9.096-2.784 4.431 2.09.903 2.703 1.271 6.393 6.886-2.869 4.793 8.028 4.058 11.389 4.921.493 10.489-2.784 10.407-7.579-.081-4.262-5.533-4.714-4.384-10.655.244-1.23 2.419-.327 2.664-.86.082-.164.781-4.755 1.148-5.245.985-1.393 2.618-4.139 4.425-4.915 1.062-.496 4.915.408 6.88-.167 2.665-.778 3.364-1.39 5.411-3.195 3.276-2.869 7.538-8.113 9.754-11.556 2.617-3.851 1.883-6.964 3.685-10.981 5.655-13.275 3.072 12.867 3.072 16.596 1.026-1.064 1.889-.534 2.827-2.665 1.313 1.23.164 2.213 2.95 2.294-.815-5.326-6.471-9.955 1.394-9.955.245 0-3.766-18.152-3.93-20.24h-1.148c.245 4.384-1.148 4.014-1.148 8.028-3.358-1.965-2.664-6.227-8.769-8.028-.699 4.425-2.787 2.95-4.629 0 .163.857.163 1.475 0 2.291-2.583-.326.041-1.964-1.89-3.603-4.133 4.137-.081-2.134 1.435-3.772 2.297-2.539 4.676-4.262 7.218-7.375 5.281-6.594 9.992-7.005 17.897-7.005zm-424.685 2.662c-1.335.536-2.77 2.093-3.055 3.361 1.21-.288 5.288-3.769 3.055-3.361-.536.207.164 0 0 0zm3.073 32.658c2.927 0 5.16-2.049 6.821-2.294 2.601-.411 6.227.819 8.317-.163 3.688-1.638 4.877-5.248 3.892-8.605-.571-2.09-2.168 1.353-2.253 1.271-.962-1.067-.839-2.705-1.597-3.361-1.292-1.146-3.113-3.892-4.813-5.941-2.644-3.032-2.95-2.294-3.361-4.714-.266-1.638 6.451-8.069-3.484-5.119.84-1.435.921-2.665 2.519-3.524-3.276-3.28-4.71 1.804-5.958 2.743-.204.166-6.844 2.419-1.638 3.32-.472 1.557-2.151 3.769-2.052 4.673 1.723.245 3.895 1.638 4.367-.248-.432 5.653 2.6 2.539 4.69 7.127 2.438 5.329-2.562 1.642-5.122 4.795.962.289 1.761.167 2.889.289 0 1.598-3.932 2.292-2.644 3.767.84.944 4.918-.449 6.25.863-.495.57-8.628 5.121-6.823 5.121zm-2.481-14.958c6.454-.898-10.285-9.299-6.37-1.475-3.073.577-7.235 4.917-2.192 4.632-6.536 9.547 2.601 3.195 8.133 4.425.225-2.253.47-4.754.429-7.582zm155.845 221.916c0-5.696 4.058-17.211-2.624-19.875 0 1.971-2.623 6.559-3.771 7.661-2.455 2.297-6.227 1.271-8.763 3.771-1.931 1.884.244 7.702 0 9.259-.496 2.95-1.727 3.364-2.379 7.049-.781 4.752.326 11.882 6.716 10.488 6.146-1.394 4.222-3.276 5.247-8.769.082-.653 1.639-6.886 1.802-6.967.496-.733 3.772-1.76 3.772-2.617zM69.443-5.554C66.657-12.192 65.1-9.65 58.955-10.39c-8.81-1.023-15.613-3.851-23.846-5.737 0 7.909.163 6.478-5.271 6.559 1.091-.082-4.751-1.723-4.197-1.475h-4.279c-.473-.781-.758-1.475-.881-2.338-2.606-.86-10.366-2.128-11.966-4.344-2.971-4.014 3.361-4.751-2.049-8.194 1.417-1.187 1.25-1.35 3.218-1.801-2.685-4.591-10.223-.289-14.261-.207-4.279.082-8.81-1.802-14.258.577-3.688 1.557-6.166 3.807-11.083 3.644-5.92-.082-9.054-4.221-9.054 3.524h-4.364c1.965 7.045-3.195 2.457-4.364 4.795-1.845 3.685-1.227 8.11-2.889 10.489-1.026 1.394-4.874 3.276-6.431 5.244-1.682 2.09-3.69 5.408-5.533 8.113-1.761 2.746-9.16 9.591-8.154 13.684.306 1.107 4.425-.531 5.081.862.595 1.143-.839 1.639-.574 2.332 1.128 2.997-.799 7.993-1.023 11.147-.289 3.685-.618 6.88 3.545 11.147 4.361 4.67 8.459 8.437 13.375 12.739 1.679 1.434 2.521 4.792 6.127 5.573 4.076.741 4.568-.985 8.419-1.475 3.358-.408 5.921 1.061 8.197.979 4.813-.198 4.483-2.006 8.437-3.358 3.177-1.062 10.063-.775 11.905 0 2.889 1.271 2.192 3.439 6.472 4.385 7.459 1.638 7.049-2.047 7.212 5.818.082 3.731-1.394 8.442-3.481 10.488 9.364 2.95 15.468 22.044 13.969 31.14-1.475 9.223-7.005 9.631-2.314 19.263 2.892 6.099 3.877 9.667 5.533 16.348 1.679 6.88 7.066 11.509 9.036 17.782 1.68 5.323-.886 7.043 1.761 9.871 7.043 7.748 25.688-1.347 31.181-7.294 2.134-2.291 5.736-6.186 6.967-9.014 1.23-2.658-.414-6.553.286-8.191.612-1.271 5.247-2.134 6.681-4.099 4.012-5.165-1.97-7.375-.862-12.785.862-4.385 9.055-6.635 11.346-8.769 5.818-5.16 6.15-10.897 4.676-18.681-.822-4.384-4.839-10.902-3.195-16.226 2.251-7.212 11.387-14.098 16.879-18.931 4.099-3.608 8.074-7.701 10.814-12.541 1.808-3.276 2.991-3.521 3.446-7.905.775-6.886 1.883-5.247-4.058-5.247-8.157-.082-10.611 3.031-16.349-3.195-3.235-3.603-8.523-7.043-11.637-11.06-3.032-4.018-6.227-13.112-8.11-17.782C76.248 8.295 74.604.88 69.443-5.554c-.203-.452.328.411 0 0zm-296.3 223.102c-1.128-.291-1.046-2.093-1.886-2.093.371 0-2.641 3.445-2.641 3.445 0 .53 5.408 4.67 5.819 4.915-.245.326-.367.775-.286 1.148-9.363 0-1.886 8.273-3.361 11.591.88-.082 1.475-.082 2.355 0 .041.862-.429 1.317-1.309 1.399 1.516 1.551.758.693 2.233.979-.513-.164 6.122 8.36 7.25 9.013 5.594 3.44 10.879 1.808 16.205 1.394-.309-1.679-6.967-3.603-8.401-6.92-1.288-3.201-4.32-11.475 1.006-11.025 0-3.317 6.76-7.13 6.247-9.509-.53-2.862-7.293-1.143-4.935-6.88.758-1.802 4.405-.816 5.244-1.802.717-.862-.268-2.378.758-3.445-.676.781 3.44-6.39 2.889-3.767.921-4.67-3.484.163-2.522-6.804 6.845 2.787 8.174.251 7.171-6.063 5.676.163 12.477.326 15.019-5.159 2.787-5.859-2.542-4.513-3.565-9.632 6.311.862 8.684 3.031 13.561-1.312 2.317-2.047 4.119-10.203 6.679-9.871-.306 1.184-.473 1.388-.225 2.414 7.518-3.767 5.407-14.343 9.526-19.258 2.644-3.194 6.329-4.751 10.119-5.818 6.005-1.72 7.623-1.312 10.984-7.13 3.994-6.927 2.355-17.409 5.55-22.983 2.335-4.058 7.457-6.478 8.81-11.188.921-3.113.758-2.828-.041-5.737-1.72-6.227-1.639-2.087-5.551-5.241-4.244-3.276-5.941-3.977-11.188-5.003-2.828-.53-12.803.164-8.646-2.046-1.557-1.067-4.075-2.624-6.083-3.032-5.122-.944-3.994.164-7.6 1.721.326-.49 1.842-3.849 1.883-4.14-1.329-.163-3.236-.857-4.524-1.225-1.312-.373-.595 2.95-3.32 2.658.551-1.229 5.879-7.905.88-7.905.88-8.851-7.334-9.34-12.783-10.739-4.466-1.102-14.278-5.568-14.278-10.529-2.521.822-6.967-.326-3.055-2.047-2.6-3.357-7.929 1.271-9.486 1.271-5.53-.204-8.235-4.833-13.561-5.859 0 2.868-1.968 2.215-3.647 3.93-.248.25.51 4.221.306 4.839-2.991-2.42-2.233-7.661.88-9.55-4.915-1.435-18.724 7.748-19.522 13.934-.452 3.44 3.157 7.043.84 11.76-1.292 2.618-6.658 8.028-9.483 9.014.51 4.425-1.335 5.241 3.195 5.614-1.886 3.277-6.291 5.242-3.772 10.652.618 1.312 3.486 1.638 4.652 3.276 1.125 1.72 2.396 4.181 3.113 5.981 1.621 3.895 3.096 10.448 5.655 13.398 3.481 4.017 7.681 5.165 12.004 8.605 7.334 5.736 4.612 18.026 3.44 27.046-.673 4.915-2.519 9.667-3.073 14.174-.676 5.41 0 11.106-2.168 16.144-2.437 5.696-2.274 9.055-3.79 15.322.082-.327-.041 4.221 0 3.031-.041.985-1.967 1.971-1.539 3.201 2.049 6.104 3.813-3.038 5.9-3.201-1.493 4.262-2.128 7.871-2.641 12.704-1.125-1.883-1.414-.822-1.842-3.521-1.376.777.674 4.754.551 5.861zm7.253-188.112c5.081-1.148 12.416-.245 17.494-2.046-2.21-2.787-9.136-1.843-13.416-2.461-2.685-.326-8.279-3.521-8.728.735-.309 2.705 2.169 4.268 4.65 3.772.592-.081-.33.082 0 0zm-13.687-.904c-1.166-1.802-3.603-2.455-6.063-2.047 1.496 2.047 4.303 3.855 6.063 2.047-.245-.326-.408.496 0 0zm5.248-6.471c-2.215-3.604-11.311-5.777-15.141-7.212-2.519-.897-8.174-3.195-11.328-1.394-3.442 1.971-2.563 2.297 1.146 4.017 1.577.857 2.539-1.638 4.096-1.393 2.151.367 3.486 2.25 4.632 2.664 5.981 2.087 9.77 3.318 16.595 3.318zm140.782-158.116c2.644-.408 3.606-.367 4.367 2.376-2.029-.411-3.833-.411-5.842 0 .082.574.163 1.146.245 1.764 5.964-.985 1.353 2.373 4.367 3.48.677.204 7.518.863 7.889.863 5.241-.248 5.713-1.353 10.2-3.772 3.81-2.087 5.489.822 6.658-3.236.513-1.598-2.294-1.638-2.889-1.761 1.312-7.212-8.605-.74-13.459-1.434-.717-.041-5.081-.659-4.282-.574-2.11-.167.164-3.28-2.046-.575-5.351-1.76-6.642 3.155-5.208 2.869.411-.04-.428.082 0 0zm-89.791 58.346c-1.128.696-7.888 11.593-7.439 12.415 1.006 1.72 4.632.082 6.6.653 3.008.944 3.644 2.134 6.675 3.527 4.53-6.886.289-9.261-6.431-11.352-.041.083 4.075-7.211.595-5.243-.391.207.367-.163 0 0zm-15.736 6.352c-2.886-.863-4.198-2.134-7.005-1.72 2.685 1.557 4.405 5.486 7.005 1.72-.431-.082-.123.245 0 0zm82.235-78.3c.84-.329 1.72.857 2.396 1.023 5.163 1.679 5.163-.289 9.381-1.968 3.792-1.475 13.135-3.48 14.447-7.008-5.125 3.976-17.088-5.282-4.326-4.792-.554 0 5.696 6.556 7.13.904.554-2.093-4.65-7.13-6.291-8.034.883-.775 6.618 3.402 4.921-2.006-.842-2.542-2.317-2.583-5.72-1.475.677-.985 1.312-.904 1.723-1.886a12.814 12.814 0 01-1.723-.738c1.846 0 7.13 2.542 9.608.863 5.655-3.772-3.48-2.42-3.48-4.221 0-.493 8.605-.904 9.2-1.886-1.825-1.764-6.6-4.877-.883-5.326.125-4.711-6.964-4.711-6.125-7.375.327-1.067 3.77-1.475 4.65-1.148 3.728 1.434.676 1.761 2.358 5.125 1.003-6.066 3.338-7.541-3.956-7.541 2.008-2.213.082-.615 3.483-2.253-2.049-3.154-7.089-.123-7.13-.123-5.203-4.18 13.133-15.573 14.853-17.741-2.314.122-4.568-.245-6.842-.327 4.734-.985 7.478-.863 11.532-3.486 1.087-.735 7.008 0 4.367-3.93-.452-.7-6.536-.37-7.13-.289-4.242.533-8.133 1.268-11.658 2.212-2.274.571-11.372 5.408-12.725 5.163 5.247-6.556 8.133-7.541-1.411-8.976 0 3.854-2.746 3.446-6.434 4.058.635-3.113 2.726-1.842 4.958-2.909-5.411-4.014-15.325 2.171-21.286 1.271 1.597-4.752 25.895-5.163 31.466-5.819v-1.312c-5.571 0-8.052-.901-12.372-1.598-6.454-1.067-12.745.449-19.094-.163 4.629-3.195 14.074-1.761 20.691-1.761-.717-5.166-29.868-3.073-33.6-1.846-4.035 1.312-.429 2.662-5.469 3.198-2.971.367-5.411-1.394-8.419-1.516-2.807-.166-8.36.408-11.454 1.598.924 1.883 3.134 1.064 3.134 3.726-1.166-.942-6.413-3.113-4.731.123-.429-.816 9.279 4.88 6.492 4.88-6.122 0-10.774-4.921-17.269-4.921 0 1.353 4.017 3.772 4.571 5.859-3.915-1.105-6.518-4.67-10.695-5.037 1.046 2.087 1.373 7.212-2.07 5.203 0 0 1.641-4.221-.676-5.448-2.685-1.557-11.41 3.807-13.255 2.909 2.029.775 5.41 1.883 6.967 3.563-2.766 0-5.122-1.924-8.011-2.294-1.883-.245-1.434-1.764-3.895-.574-2.437 1.148-.51 2.95-1.146 3.32-2.294 1.35-7.086 1.886-11.413 4.177-1.72.945-5.918.863-5.652 3.813 2.521.694 3.769 0 6.125 0 1.679 0-.082 5.489-.432 5.819-.798.653-4.442.449-5.571.734-2.97.822-8.357.493-11.372 2.297-9.853 5.778 8.34 6.267 13.727 6.267-1.104 4.466-12.086 1.149-12.086 3.688 0 1.271 4.772 2.621 5.816 2.828-.816 0-.88 0-1.125.574 1.434 1.23 4.242 3.644 6.413 2.869-.163-.286-1.084-1.149-.574-1.475 3.28-2.009 17.371-.452 21.225 2.046 5.632 3.609 9.894 10.984 10.448 17.741h1.394c-5.55 9.999 7.847 1.764 11.657 10.777-3.606.166-7.005-2.376-10.325-.982.799 2.458-2.172 6.512 2.889 6.638 4.425.082 5.877-3.076.717-3.892 7.352-.863 5.591 2.005 7.641 7.168-3.28-.204-5.88.411-5.798 3.606-7.293-.941.391 8.605.799 10.122-.163-.408 2.192-.985 2.644-.082.347.819-2.376 1.679-1.618 2.376-1.149-1.064 1.288 4.096 1.002 3.361-.041-.164 2.848-1.682 3.341-1.639-2.256 4.548 0 12.331 4.956 16.06 2.233 1.682 13.133 5.859 14.896 4.918 2.437-1.312 1.761-6.312 2.723-8.565.635-1.353-1.455-1.761-.656-3.358.411-.904 2.603-.289 3.256-1.598 2.95-5.41 1.149-10.573 8.524-11.188-.163-3.521.204-1.023 2.09-2.253-.449 9.221 15.206-10.118 15.287-10.118zm-159.019-45.073c3.114 4.754 17.129 3.032 22.271 2.175 1.391 3.48 9.667 1.35 9.361-3.239-.799.37-1.557.737-2.355 1.064-.248-.735-.452-1.475-.697-2.209 3.3-.618 3.134-1.435 2.335-4.344 4.201 1.146 7.722.531 4.795-3.32-.472-.615 4.361-.166 4.361-.737 0-4.058-7.434-2.746-9.319-1.067-.167-.449-.371-.942-.534-1.435 4.734-3.358 9.894 1.312 14.383-2.743-.88-.697-1.764-1.271-2.604-1.886 2.971.781 5.88 1.434 9.197.122-1.434-1.104-1.268-1.965-3.113-2.787 6.886 1.682 14.978-5.859 21.391-7.539-2.052-2.046-7.542-.041-11.066-.49 2.892-3.731 18.829-.123 19.832-5.247.676-3.481-13.826-4.096-17.31-3.154-1.353-1.394-6.883-2.869-10.369-3.236-1.35 4.874-17.001-2.212-15.855 3.358-4.364-1.638-14.054-2.58-17.371 2.175 3.685-.207 7.722.53 9.526 3.48-3.708-.941-8.605-3.276-11.841-3.892-3.361-.697-6.128 1.104-7.049 1.227-3.524.493-10.57 2.379-14.812 3.239-.041.452-.085.901-.125 1.353 3.609 1.146 3.854 3.236 7.888 4.425 5.757 1.761 5.964-1.312 10.92-2.009-9.999 5.859 5.451 3.895 8.174 3.154 5.573-1.394 9.445-4.588 15.263-4.384-2.335.248-4.612 1.271-6.413 2.869 2.131-.368 3.953.37 6.005.329-2.933 2.172-12.336 2.866-16.616 3.154v1.475c2.804 1.187 4.486 3.279 7.847 3.198-4.958 1.35-12.377-3.527-17.969-4.18.472 4.711 8.956 8.564 13.728 8.276-1.087 1.309-1.601 2.294-2.481 3.32-8.296-8.116-20.773 4.507-5.367 1.761-.839.49-1.638.901-2.521 1.312 1.804 2.95 5.125 1.965 7.603-.574-2.807 7.538-11.206.411-16.328 1.023 2.153 3.318.124 4.671-2.765 5.983zm1.291-9.504c.84-.944 2.315-.37 1.904-3.032 9.302 1.391 7.13-4.343 1.335-7.952.344.207-18.788-9.381-18.336-6.635 1.35.286 2.56-.659 2.886 1.064.064.248-5.101.86-5.696.86 1.209.778 1.6 1.968 2.052 2.46-1.376-.207-2.604.245-3.895.163-.473.982-1.003 3.236-1.044 4.507 3.481 3.48 8.582.531 12.372 3.647-2.274.163-4.524 1.268-6.676 1.597 4.28 3.893 10.038 5.286 15.098 3.321zm-7.541 4.997c-.428.697-.88 1.353-1.309 2.049 2.563.778 4.364.615 6.556-.452-1.393-2.538-2.725-2.087-5.247-1.597zm2.297 17.578c2.909-.571 35.092 2.049 30.34-5.326-2.807-4.466-15.529.286-19.42.204-8.133-.164-9.282-8.644-16.575-6.475 2.725 4.63-.082 9.632 5.655 11.597zm-20.219.656h2.067c-.922-2.254-.922-.493-2.067 0zm4.483-3.688c1.516 1.353 9.445 4.997 8.605-.123-.612-4.22-7.252-2.212-8.605.123zm7.192-6.267c3.216-3.402-1.516-5.778-4.958-5.247-7.087 1.148 1.678 5.288 4.958 5.247zm-5.961-6.967c2.6-.041 5.163-.368 7.684-1.026v-1.475c-3.239-.449-6.722-.694-7.684 2.501zm.533-3.647c7.314-1.764-4.856-5.081-7.13-4.384 1.005 3.443 3.361 5.611 7.13 4.384zm-8.133-10.899c-1.046-2.046-1.804-3.154-4.527-2.665v1.764c1.965.86 2.722 1.227 4.527.901zm-1.886 12.497c2.131-7.291-12.25-10.777-17.66-8.766 2.09.857 3.137 2.496 4.653 3.807h-2.481c2.192 2.991 11.331 3.361 15.488 4.959zm-5.533.288c-1.842-.741-2.396-1.764-4.67-1.189.839 2.542 2.314 1.719 4.67 1.189zm-1.35 12.701c2.991-1.475 4.795-.33 5.408 3.072 3.912-.207 6.804-1.557 6.352-5.693-.513-4.591-5.122-2.664-9.238-4.262 1.435 1.023 2.968 2.539 3.807 4.096-.204-.289-5.818-2.458-6.923-2.621.306 1.227.347 2.373.758 3.603-2.685-2.046-3.892-5.448-7.722-5.818-.412 4.385 3.585 6.641 7.558 7.623zm-8.422 1.146c.33.245 3.178 3.524 3.178.123 0-1.925-2.767-.123-3.178-.123zm1.006-10.897c-1.064-1.72-2.358-2.991-4.242-3.813.164 2.91 1.639 4.548 4.242 3.813zm75.944 52.239c2.09.659 7.886-.123 5.816-3.399-1.842-2.909-8.337-.697-5.816 3.399zm-47.079-24.624c.88-1.516 2.294-.942 2.213-3.361 4.075 1.475 5.757-2.128 7.888-5.037-3.014-1.108-9.343-3.195-11.987-1.312-2.396 1.72-3.398 11.185 1.886 9.71zm-12.846 4.548c6.722 0 8.052-6.063 1.598-9.014 4.897-1.597 1.046-4.588-1.72-5.448-.513-.163-4.402 1.965-6.716 1.516 4.116 4.262.921 7.005-3.609 4.507.203 2.909 7.764 7.007 10.447 8.439zm-16.325-9.177c1.268-4.014-3.813-4.795-6.25-2.624 2.314 2.131 3.912 3.606 6.25 2.624zm-9.608-3.361c.265.245 1.842 2.09 0 0zm-14.139-26.469h10.366c-1.801-3.933-7.558-2.787-10.366 0zm2.93 6.352c2.91 0 6.597-.33 4.079-3.198 1.23-.53 1.679-.041 2.519-1.434-3.44-.327-6.801-.163-9.649 1.764.593 1.926 1.596 2.211 3.051 2.868zm-5.098-2.58c-.883-1.886-1.149-3.157-3.956-2.665.676 2.417 1.886 2.213 3.956 2.665zm-2.91 7.253c-4.139 1.227-8.258 5.486-5.37 7.783 2.56 2.128 12.045-.041 15.284.286-1.105 1.23-7.888.041-7.478 2.379.636 2.743 5.714 1.023 7.393.694 3.568-.653 16.902-2.376 15.939-7.334.371 1.886-8.769-5.078-7.97-4.833-4.279-1.23-5.877 1.23-3.644 5.122.816.37 2.128-.167 2.417.86.39 1.555-14.378-4.223-16.571-4.957zm.84-2.788c.921.449 1.227 1.924 3.521 1.475-.041-.452-.123-.944-.164-1.475-1.083.327-2.17.327-3.357 0zm-11.62 6.309c-.51.533-.962 1.189-1.475 1.72 3.198-.041 2.563.534 4.244-2.458-.923.248-1.845.493-2.769.738zm4.653-3.688c2.437-.86 3.708-2.743 4.075-5.489-8.809-2.134-11.614 5.941-19.686 6.842 3.79 5.734 9.442.533 12.847-2.621.84 2.539 1.843.735 2.764 1.268zm2.029 38.063c6.291-.531 6.454 2.746 11.369 4.099 4.856 1.353 8.585-2.087 12.949-2.95 2.665-.449 19.934 2.379 13.847-2.458 2.44.041 3.198-1.271 4.673-1.886-5.326-3.685-7.559-3.685-10.244-8.809-1.047-1.965-5.571-11.637-9.279-7.046-1.682 2.131 4.483 7.168-.125 6.842-2.355-.204-2.172-6.472-6.533-6.72.49.86.921 1.968 1.411 2.869-1.801.778-2.723 1.064-4.649 1.475.469-.819.676-2.008 1.006-2.869-3.239-1.227-6.291-.656-8.133.534 1.411-5.451-3.731-2.869-6.373-1.679-4.836 2.128-5 3.195-7.191 6.923 3.239 1.268 6.678-.778 9.608 1.475-2.375.245-4.649 1.064-6.369 2.458 3.236 1.761 13.724-.86 15.444 2.049.615 1.105-11.491 1.638-13.397 2.743.633 1.026 1.35 1.971 1.986 2.95zm24.317 5.655c2.665-.735 4.279-1.271 4.833-3.481-2.682.49-5.367 1.475-7.722 2.95.963.164 1.969.368 2.889.531zm-40.607-15.733c5.166.778 7.253-6.148 11.701-8.398 7.271-3.731 9.034-4.836-.289-6.763-2.396-.449-14.38-3.317-16.858-1.187-1.434 1.146-1.805 9.751-4.921 13.15 3.361.207 6.519 2.011 7.889 5.247.799-.655 1.639-1.393 2.478-2.049zm-121.382 52.772c-3.012-3.973-6.166.493 0 0zm48.965-3.235c.717-4.588 6.882 1.067 10.077 2.008 4.14 1.227 8.052.37 12.066 1.638 7.11 2.335 11.966 8.769 19.094 10.037.676 1.519 1.189 2.994 2.315 4.099.37.452 3.442 1.802 3.813 2.501 2.478 3.685 3.912 7.293 6.043 10.162 3.79 5.078 5.204 5.489 10.573 8.684 3.872 2.294 8.437 6.188 7.886 11.596-4.405-5.326-8.932-12.701-16.348-11.759 3.484 4.136 8.644 5.611 10.859 10.858 2.274 5.408-.676 10.652-.676 15.118-.082 8.36 4.198 20.12 9.914 26.387 3.297 3.647 8.422 3.81 11.454 8.524 2.519 3.726 4.568 8.48 6.883 12.331.798 1.23-.924 1.886.839 4.425 1.046 1.557 4.014 2.95 5.448 4.385.962 1.026 5.737 6.681 6.127 8.809 4.527-4.588-13.051-20.61-13.561-27.204 4.915-.659 10.53 10.57 14.156 14.502 4.609 4.918 8.81 11.635 13.541 17.045-6.883 4.711 20.426 14.832 24.933 15.485 1.33.25 2.845-1.47 5.367-.735 2.848.863 4.137 3.895 6.411 5.248 2.276 1.387 9.774 2.658 10.022 2.332 3.994 2.746 6 8.237 8.069 10.243 3.055 2.746 9.935 4.88 14.26 6.764-1.209-7.376 6.883-.659 7.171-3.073.673-4.88-10.104-1.807-13.095-3.771-7.212-4.874.513-10.244-3.174-15.573-3.154-4.629-11.206-1.02-15.121-2.74 3.445-3.771 8.564-15.735 1.189-15.246-6.719.449-3.439 5.084-7.6 8.361-3.81 3.031-9.938 1.066-12.969-1.476-6.536-5.818-6.288-21.717-2.396-27.495 5.428-7.947 14.013-.286 20.015-2.169-1.411-5 4.241-4.262 7.766-4.017-.327 0 8.011 1.557 6.967.863 2.641 1.883 6.879 15.526 9.608 15.281 3.358-.245-2.521-18.479 1.924-23.601 2.868-3.358 8.911-4.221 10.611-8.113 1.475-3.361-.653-5-1.577-9.18 2.481.659 1.169-1.309 3.769 1.312.921-2.046 2.974-7.457 4.449-8.891 1.842-1.638 6.594-2.005 9.649-2.787-4.448-8.48 12.535-14.503 18.846-13.068-.839-.167-6.084 1.927-6.842 3.361-2.233 4.507 3.933.653 4.157.612 5.247-.612 11.147-4.588 12.745-9.299-4.201 2.006-5.37 5.326-10.488 2.665-6.845-3.731-.248-7.008-1.846-9.428-4.323-6.635-15.097 5.411-19.627 8.238 1.169-2.215 2.726-4.18 4.653-5.737-1.047-.245-2.233-.534-3.32-.904 5.716 1.312 8.976-5.815 13.85-7.209 3.236-.942 7.766.248 11.042 0 5.102-.493 4.568-1.023 8.932-2.909 3.977-1.639 10.285-2.335 8.378-7.416-1.924-5.163-8.664-1.435-12.742-1.064 1.927-3.279 5.88-2.664 8.851-5.083-5.122-.857-9.731-2.784-12.681-7.294 3.154-1.965-5.818-11.634-7.416-15.199-2.603 2.868-2.603 7.498-6.719 8.442-4.017.857-3.483-3.32-7.97-2.134 2.804-9.748-5.041-13.15-12.623-15.036-8.603-2.209-14.36 2.131-8.232 11.066h-2.049c-.676 1.516-.207 2.495-1.128 4.137 8.051 3.361 6.209 15.651-3.073 15.325 2.641 2.828 5.041 13.479-.88 14.094-5.737.371-7.089-10.777-6.536-15.039-6.678-1.064-10.652-2.046-16.409-4.997-2.563-1.312-5.53-2.215-7.807-3.113-2.008-.863-2.519.979-4.241-.082-1.248-.781-1.475-3.69-2.355-4.754-2.927-3.688-4.446-1.56-3.892-7.542.207-2.414 2.685-6.308 4.445-8.11 1.883-1.886 6.291-2.46 5.88-5.166-.347-1.802-7.559-2.825-8.973-3.358 3.769.368 10.777 3.895 11.78-.9 4.405 2.661 6.495-.371 7.725-4.096-4.038.245-7.049-1.723-10.492-3.364 2.644.084 17.701 3.772 11.495-2.784 6.716-.493 2.128 10.244-.88 11.389 2.478 2.624 3.399 3.279 7.127 3.239-.204 0 3.443-1.723 4.486-1.927 1.353-.163 2.766 1.353 3.871 1.189 8.337-1.393-8.11-7.171-9.486-10.203 3.772-.123 1.475-.082 3.014-2.009 5.754-.411 8.358-5.285 4.484-10.037 7.847-1.353-1.843-6.434-4.606-7.746 4.792-.737 9.914 1.557 14.975-.289-.758-.734-1.495-1.475-2.294-2.209 5.326 1.557 9.013 4.751 13.663 8.276 1.988 1.475 5.635 3.729 5.757 6.638.163 4.017-7.355 3.81-3.994 8.81-2.767.697-12.664-1.557-12.252 3.358.47 4.795 7.722-.449 9.567-.245 5.88.778 6.288 4.792 10.037 7.909 3.69 2.909 9.567 2.539 13.934 4.877.163-3.69-5.513-5.533-7.603-8.769 3.854 1.883 7.725 3.851 11.369 6.022.513-.903 1.254-3.854 1.601-4.958-3.565-3.402-7.681-6.515-11.208-11.063 2.644-3.935 3.69-1.189 6.804.449 4.979 2.624 2.804 4.139 6.801 3.075-.265.041 4.936-4.18 4.895-4.139 1.682-3.113 1.971-.778-.286-3.647-2.273-2.828-24.501-9.014-13.377-11.349-1.105-.289-2.233-.615-3.361-.9.924-.7.758-.781 2.052-1.312-1.764-.656-2.399-2.008-4.53-2.419.327-.531.676-1.064 1.003-1.638-4.076-.819-6-1.761-9.731-2.746.676-.449 1.333-.898 2.009-1.309-7.375-.166-7.845-4.384-12.969-6.025-3.892-1.187-11.492 3.198-13.171 2.338-2.603-1.394.676-2.787-1.046-5.204-2.848-4.18-2.478-3.606-7.127-2.787-7.008 1.353-6.681 7.005-3.113 11.678-7.375.941-6.332-10.081-1.046-12.66-5.612-.245-10.859.367-13.133 6.349-3.011 8.197 3.073 4.466 6.002 8.769-2.131-.49-3.402.367-5.367.286 1.801 2.624 9.894 3.443 13.377 4.507-2.09.863-3.239 15.205-8.851 12.255-2.562-1.312.082-5.288 0-5.37-2.273-2.542-4.323-1.557-5.122-1.965-.921-.577-5.244-1.93-6.923-4.466-2.335-3.446-2.93-12.949-10.06-7.952-6.719 4.632 7.212 13.071-.636 11.433 1.169 3.276 3.647 3.113 6.414.615-.082 4.958-6.618 3.28-4.653 9.014-3.276-2.253-2.519-1.309-2.355-4.673-3.049-.816-.571-.123-2.168-2.455h1.883c.164-3.279-2.005-5.247-5.244-5.859-.839.857-2.726 2.909-3.483 3.766 1.516.618 2.685 2.216 4.241 2.787-3.483 6.352-10.285 3.483-16.019 2.131-3.792-.86-4.244-2.335-7.912-.819-5.364 2.294-2.845 2.624-3.644 8.031-2.338-8.439-13.584-5.611-20.386-6.271.595-.326 1.21-1.761 3.198-2.498-3.364-2.702-14.692-5.941-18.646-6.679-4.938-.941-9.812 4.18-11.657-1.883-1.432 4.874-2.437 1.842-4.731 1.679-.717-.041-1.557-3.276-3.276-3.524-2.317-.248-.843 1.475-2.151 1.723-2.563.612-9.567 4.384-12.582 6.145 2.644-3.483 7.008-3.032 9.608-6.145-4.915 0-10.733 2.702-15.651 3.766-8.256 1.679-11.576-1.72-20.056-2.702-6.329-.656-12.17-2.008-18.747-2.498-6.964-.618-10.57-3.076-17.8-2.256.266-.531.51-1.023.758-1.598-4.407-.819-10.407 2.049-14.342 3.195-5.41 1.638-5.798 4.918-9.526 7.212-5.367 3.277-9.2-.204-4.915 5.492 2.682 3.603 8.562 4.099 10.529 8.728-3.055 1.023-6.372.857-6.536-2.583-3.483 2.46-7.439 1.598-10.325 5.081 3.769 1.557 3.729 4.629 6.967 5.448 3.726.945 8.643-1.597 12.127-1.924.49 10.652-11.882 3.113-13.687 12.535-.452 2.542 5.407 13.194 9.197 6.967 2.012 1.968 2.604 4.221 1.723 6.967 3.688-.74 7.845.531 9.608-1.72 1.128 0 2.644.326 4.242.286-2.787 12.167-16.677 10.203-23.169 17.66 9.442 2.335 25.093-12.13 33.186-16.637-.758-1.064-1.434-2.131-2.192-3.198 4.958-1.638 6.804-9.871 12.558-6.145-4.075.534-6.288 2.869-5.119 6.722 2.927-1.764 6.247-3.279 9.73-3.527a75.532 75.532 0 00-.842-1.882zm-11.905 11.963v-2.621c-2.991 2.131-7.271 2.702-4.833 6.556 1.883-.821 3.646-2.171 4.833-3.935z"/></svg>