<?xml version="1.0"?>
<svg xmlns="http://www.w3.org/2000/svg" xmlns:xlink="http://www.w3.org/1999/xlink" xmlns:svgjs="http://svgjs.com/svgjs" version="1.1" width="512" height="512" x="0" y="0" viewBox="0 0 512.00035 512" style="enable-background:new 0 0 512 512" xml:space="preserve" class=""><g><path d="m486.390625 335.144531v-40.753906c0-7.070313-5.730469-12.800781-12.800781-12.800781h-63.996094v-51.199219h63.996094c7.070312 0 12.800781-5.730469 12.800781-12.796875v-40.757812c19.996094-7.066407 30.472656-29.007813 23.402344-49-7.070313-19.996094-29.007813-30.472657-49-23.402344-19.996094 7.070312-30.472657 29.007812-23.402344 49 3.863281 10.9375 12.464844 19.539062 23.402344 23.402344v27.957031h-51.199219v-38.398438c0-7.070312-5.730469-12.796875-12.800781-12.796875h-38.398438v-51.203125c0-56.550781-45.84375-102.394531-102.394531-102.394531s-102.394531 45.84375-102.394531 102.394531v51.199219h-38.398438c-7.070312 0-12.800781 5.730469-12.800781 12.800781v38.398438h-51.195312v-27.957031c19.992187-7.070313 30.46875-29.007813 23.402343-49.003907-7.070312-19.992187-29.011719-30.46875-49.003906-23.402343-19.996094 7.070312-30.472656 29.007812-23.402344 49.003906 3.867188 10.933594 12.46875 19.535156 23.402344 23.402344v40.753906c0 7.070312 5.730469 12.800781 12.800781 12.800781h63.996094v51.195313h-63.996094c-7.070312 0-12.800781 5.730468-12.800781 12.800781v40.753906c-19.996094 7.070313-30.472656 29.011719-23.402344 49.003906 7.070313 19.996094 29.007813 30.472657 49.003907 23.402344 19.992187-7.070313 30.46875-29.007813 23.402343-49.003906-3.867187-10.933594-12.46875-19.535157-23.402343-23.402344v-27.953125h51.195312v63.996094c0 7.070312 5.730469 12.796875 12.800781 12.796875h89.597657v76.800781h-27.957032c-7.070312-19.996094-29.007812-30.472656-49.003906-23.402344-19.992188 7.066406-30.472656 29.007813-23.402344 49 7.070313 19.996094 29.007813 30.472656 49.003906 23.402344 10.933594-3.863281 19.535157-12.464844 23.402344-23.402344h40.753906c7.070313 0 12.800782-5.730468 12.800782-12.796875v-89.597656h51.195312v89.597656c0 7.066407 5.730469 12.796875 12.800782 12.796875h40.753906c7.070312 19.996094 29.011718 30.472656 49.003906 23.402344 19.996094-7.070312 30.472656-29.007812 23.402344-49-7.070313-19.996094-29.007813-30.472656-49.003906-23.402344-10.933594 3.863282-19.535157 12.464844-23.402344 23.402344h-27.953125v-76.800781h89.59375c7.070312 0 12.800781-5.730469 12.800781-12.796875v-63.996094h51.199219v27.953125c-19.996094 7.070313-30.472657 29.011719-23.402344 49.003906 7.066406 19.996094 29.007813 30.472657 49 23.402344 19.996094-7.070313 30.472656-29.007813 23.402344-49.003906-3.863281-10.929688-12.464844-19.53125-23.402344-23.398438zm-307.1875-232.75c0-42.410156 34.382813-76.796875 76.796875-76.796875 42.417969 0 76.800781 34.382813 76.800781 76.796875v51.199219h-153.597656zm89.597656 191.992188c0 7.070312-5.730469 12.800781-12.800781 12.800781-7.066406 0-12.800781-5.730469-12.800781-12.800781v-51.195313c0-7.070312 5.734375-12.800781 12.800781-12.800781 7.070312 0 12.800781 5.730469 12.800781 12.800781zm0 0" fill="#14405d" data-original="#000000" class=""/></g></svg>
